{
  "accessors": [
    {
      "bufferView": 2,
      "componentType": 5126,
      "count": 31,
      "max": [
        0.411857008934021,
        -1.2287189960479736,
        0.8537200093269348
      ],
      "min": [
        -0.2650260031223297,
        -1.88230299949646,
        0.6279720067977905
      ],
      "type": "VEC3"
    },
    {
      "bufferView": 2,
      "byteOffset": 372,
      "componentType": 5126,
      "count": 31,
      "max": [
        0.18482591211795807,
        -0.25729894638061523,
        -0.9291312098503113
      ],
      "min": [
        0.10168298333883286,
        -0.3375798761844635,
        -0.9568597674369812
      ],
      "type": "VEC3"
    },
    {
      "bufferView": 1,
      "componentType": 5126,
      "count": 31,
      "max": [
        0.0,
        0.0
      ],
      "min": [
        0.0,
        0.0
      ],
      "type": "VEC2"
    },
    {
      "bufferView": 0,
      "componentType": 5125,
      "count": 90,
      "type": "SCALAR"
    },
    {
      "bufferView": 2,
      "byteOffset": 744,
      "componentType": 5126,
      "count": 8257,
      "max": [
        1.3269230127334595,
        1.7140209674835205,
        1.399533987045288
      ],
      "min": [
        -1.3992199897766113,
        -1.9593210220336914,
        0.1599390059709549
      ],
      "type": "VEC3"
    },
    {
      "bufferView": 2,
      "byteOffset": 99828,
      "componentType": 5126,
      "count": 8257,
      "max": [
        1.0,
        1.0,
        1.0
      ],
      "min": [
        -1.0,
        -1.0,
        -1.0
      ],
      "type": "VEC3"
    },
    {
      "bufferView": 3,
      "componentType": 5126,
      "count": 8257,
      "max": [
        1.0,
        0.9999197125434875,
        0.9999905824661255,
        1.0
      ],
      "min": [
        -0.9998689293861389,
        -0.9999220967292786,
        -0.999891459941864,
        -1.0
      ],
      "type": "VEC4"
    },
    {
      "bufferView": 1,
      "byteOffset": 248,
      "componentType": 5126,
      "count": 8257,
      "max": [
        0.9964100122451782,
        0.9980030059814453
      ],
      "min": [
        0.00698600010946393,
        0.003828000044450164
      ],
      "type": "VEC2"
    },
    {
      "bufferView": 0,
      "byteOffset": 360,
      "componentType": 5125,
      "count": 30042,
      "type": "SCALAR"
    }
  ],
  "asset": {
    "extras": {
      "author": "Suushimi (https://sketchfab.com/Suushimi)",
      "license": "CC-BY-NC-4.0 (http://creativecommons.org/licenses/by-nc/4.0/)",
      "source": "https://sketchfab.com/3d-models/fries-c48ede685e844f52a9264536eab30c84",
      "title": "Fries"
    },
    "generator": "Sketchfab-12.82.3",
    "version": "2.0"
  },
  "bufferViews": [
    {
      "buffer": 0,
      "byteLength": 120528,
      "name": "floatBufferViews",
      "target": 34963
    },
    {
      "buffer": 0,
      "byteLength": 66304,
      "byteOffset": 120528,
      "byteStride": 8,
      "name": "floatBufferViews",
      "target": 34962
    },
    {
      "buffer": 0,
      "byteLength": 198912,
      "byteOffset": 186832,
      "byteStride": 12,
      "name": "floatBufferViews",
      "target": 34962
    },
    {
      "buffer": 0,
      "byteLength": 132112,
      "byteOffset": 385744,
      "byteStride": 16,
      "name": "floatBufferViews",
      "target": 34962
    }
  ],
  "buffers": [
    {
      "byteLength": 517856,
      "uri": "scene.bin"
    }
  ],
  "images": [
    {
      "uri": "textures/Fries2lambert3SG_baseColor.png"
    },
    {
      "uri": "textures/Fries2lambert3SG_metallicRoughness.png"
    },
    {
      "uri": "textures/Fries2lambert3SG_normal.png"
    }
  ],
  "materials": [
    {
      "doubleSided": true,
      "name": "Fries2lambert3SG",
      "normalTexture": {
        "index": 2
      },
      "pbrMetallicRoughness": {
        "baseColorTexture": {
          "index": 0
        },
        "metallicRoughnessTexture": {
          "index": 1
        }
      }
    }
  ],
  "meshes": [
    {
      "name": "Object_0",
      "primitives": [
        {
          "attributes": {
            "NORMAL": 1,
            "POSITION": 0,
            "TEXCOORD_0": 2
          },
          "indices": 3,
          "material": 0,
          "mode": 4
        }
      ]
    },
    {
      "name": "Object_1",
      "primitives": [
        {
          "attributes": {
            "NORMAL": 5,
            "POSITION": 4,
            "TANGENT": 6,
            "TEXCOORD_0": 7
          },
          "indices": 8,
          "material": 0,
          "mode": 4
        }
      ]
    }
  ],
  "nodes": [
    {
      "children": [
        1
      ],
      "matrix": [
        1.0,
        0.0,
        0.0,
        0.0,
        0.0,
        2.220446049250313e-16,
        -1.0,
        0.0,
        0.0,
        1.0,
        2.220446049250313e-16,
        0.0,
        0.0,
        0.0,
        0.0,
        1.0
      ],
      "name": "Sketchfab_model"
    },
    {
      "children": [
        2,
        3
      ],
      "name": "Fries_3.obj.cleaner.materialmerger.gles"
    },
    {
      "mesh": 0,
      "name": "Object_2"
    },
    {
      "mesh": 1,
      "name": "Object_3"
    }
  ],
  "samplers": [
    {
      "magFilter": 9729,
      "minFilter": 9987,
      "wrapS": 10497,
      "wrapT": 10497
    }
  ],
  "scene": 0,
  "scenes": [
    {
      "name": "Sketchfab_Scene",
      "nodes": [
        0
      ]
    }
  ],
  "textures": [
    {
      "sampler": 0,
      "source": 0
    },
    {
      "sampler": 0,
      "source": 1
    },
    {
      "sampler": 0,
      "source": 2
    }
  ]
}
