{
  "accessors": [
    {
      "bufferView": 2,
      "componentType": 5126,
      "count": 35858,
      "max": [
        1.994631052017212,
        2.7953646183013916,
        0.3922342360019684
      ],
      "min": [
        -2.135457992553711,
        -2.5600368976593018,
        -1.0951290130615234
      ],
      "type": "VEC3"
    },
    {
      "bufferView": 2,
      "byteOffset": 430296,
      "componentType": 5126,
      "count": 35858,
      "max": [
        0.9999244213104248,
        0.9995052218437195,
        0.999864399433136
      ],
      "min": [
        -0.9996087551116943,
        -0.9997733235359192,
        -0.9999995827674866
      ],
      "type": "VEC3"
    },
    {
      "bufferView": 3,
      "componentType": 5126,
      "count": 35858,
      "max": [
        0.9999849796295166,
        0.999991774559021,
        0.9998083114624023,
        1.0
      ],
      "min": [
        -0.9999911189079285,
        -0.9999567270278931,
        -0.9999829530715942,
        -1.0
      ],
      "type": "VEC4"
    },
    {
      "bufferView": 1,
      "componentType": 5126,
      "count": 35858,
      "max": [
        0.9988999962806702,
        0.9999970197677612
      ],
      "min": [
        0.00020199999562464654,
        0.00015199999324977398
      ],
      "type": "VEC2"
    },
    {
      "bufferView": 1,
      "byteOffset": 286864,
      "componentType": 5126,
      "count": 35858,
      "max": [
        0.9988999962806702,
        0.9999970197677612
      ],
      "min": [
        0.00020199999562464654,
        0.00015199999324977398
      ],
      "type": "VEC2"
    },
    {
      "bufferView": 1,
      "byteOffset": 573728,
      "componentType": 5126,
      "count": 35858,
      "max": [
        0.9988999962806702,
        0.9999970197677612
      ],
      "min": [
        0.00020199999562464654,
        0.00015199999324977398
      ],
      "type": "VEC2"
    },
    {
      "bufferView": 1,
      "byteOffset": 860592,
      "componentType": 5126,
      "count": 35858,
      "max": [
        0.9988999962806702,
        0.9999970197677612
      ],
      "min": [
        0.00020199999562464654,
        0.00015199999324977398
      ],
      "type": "VEC2"
    },
    {
      "bufferView": 0,
      "componentType": 5125,
      "count": 36558,
      "type": "SCALAR"
    }
  ],
  "asset": {
    "extras": {
      "author": "Rainbow (https://sketchfab.com/encoded01)",
      "license": "CC-BY-4.0 (http://creativecommons.org/licenses/by/4.0/)",
      "source": "https://sketchfab.com/3d-models/grilled-sandwich-416a6157f92b4b9e98ff425a30de5c41",
      "title": "Grilled sandwich"
    },
    "generator": "Sketchfab-15.30.0",
    "version": "2.0"
  },
  "bufferViews": [
    {
      "buffer": 0,
      "byteLength": 146232,
      "name": "floatBufferViews",
      "target": 34963
    },
    {
      "buffer": 0,
      "byteLength": 1147456,
      "byteOffset": 146232,
      "byteStride": 8,
      "name": "floatBufferViews",
      "target": 34962
    },
    {
      "buffer": 0,
      "byteLength": 860592,
      "byteOffset": 1293688,
      "byteStride": 12,
      "name": "floatBufferViews",
      "target": 34962
    },
    {
      "buffer": 0,
      "byteLength": 573728,
      "byteOffset": 2154280,
      "byteStride": 16,
      "name": "floatBufferViews",
      "target": 34962
    }
  ],
  "buffers": [
    {
      "byteLength": 2728008,
      "uri": "scene.bin"
    }
  ],
  "extensionsRequired": [
    "KHR_materials_pbrSpecularGlossiness"
  ],
  "extensionsUsed": [
    "KHR_materials_pbrSpecularGlossiness"
  ],
  "images": [
    {
      "uri": "textures/3DModel_LowPoly.001_diffuse.jpeg"
    },
    {
      "uri": "textures/3DModel_LowPoly.001_specularGlossiness.png"
    },
    {
      "uri": "textures/3DModel_LowPoly.001_normal.jpeg"
    }
  ],
  "materials": [
    {
      "doubleSided": true,
      "extensions": {
        "KHR_materials_pbrSpecularGlossiness": {
          "diffuseFactor": [
            1.0,
            1.0,
            1.0,
            1.0
          ],
          "diffuseTexture": {
            "index": 0
          },
          "glossinessFactor": 0.8256256532933457,
          "specularFactor": [
            0.005769340703389271,
            0.005769340703389271,
            0.005769340703389271
          ],
          "specularGlossinessTexture": {
            "index": 1
          }
        }
      },
      "name": "3DModel_LowPoly.001",
      "normalTexture": {
        "index": 2
      }
    }
  ],
  "meshes": [
    {
      "name": "Object_0",
      "primitives": [
        {
          "attributes": {
            "NORMAL": 1,
            "POSITION": 0,
            "TANGENT": 2,
            "TEXCOORD_0": 3,
            "TEXCOORD_1": 4,
            "TEXCOORD_2": 5,
            "TEXCOORD_3": 6
          },
          "indices": 7,
          "material": 0,
          "mode": 4
        }
      ]
    }
  ],
  "nodes": [
    {
      "children": [
        1
      ],
      "matrix": [
        0.18517202138900757,
        0.0,
        0.0,
        0.0,
        0.0,
        4.111644833249163e-17,
        -0.18517202138900757,
        0.0,
        0.0,
        0.18517202138900757,
        4.111644833249163e-17,
        0.0,
        0.0,
        0.0,
        0.0,
        1.0
      ],
      "name": "Sketchfab_model"
    },
    {
      "children": [
        2
      ],
      "name": "root"
    },
    {
      "children": [
        3
      ],
      "matrix": [
        1.0,
        0.0,
        0.0,
        0.0,
        0.0,
        2.220446049250313e-16,
        1.0,
        0.0,
        0.0,
        -1.0,
        2.220446049250313e-16,
        0.0,
        0.0,
        0.0,
        0.0,
        1.0
      ],
      "name": "GLTF_SceneRootNode"
    },
    {
      "children": [
        4
      ],
      "matrix": [
        0.329567178039579,
        -0.0053583489626898,
        8.78881468907922e-12,
        0.0,
        4.428179680618726e-10,
        2.7776207356032148e-08,
        0.32954883575439337,
        0.0,
        -0.005289526991602698,
        -0.32533425798225746,
        2.7428086889695032e-08,
        0.0,
        0.0,
        0.11511099338531494,
        -0.14594674110412598,
        1.0
      ],
      "name": "3DModel_LowPoly.001_0"
    },
    {
      "mesh": 0,
      "name": "Object_4"
    }
  ],
  "samplers": [
    {
      "magFilter": 9729,
      "minFilter": 9987,
      "wrapS": 10497,
      "wrapT": 10497
    }
  ],
  "scene": 0,
  "scenes": [
    {
      "name": "Sketchfab_Scene",
      "nodes": [
        0
      ]
    }
  ],
  "textures": [
    {
      "sampler": 0,
      "source": 0
    },
    {
      "sampler": 0,
      "source": 1
    },
    {
      "sampler": 0,
      "source": 2
    }
  ]
}
